<svg xmlns="http://www.w3.org/2000/svg" width="28.127" height="25" viewBox="0 0 28.127 25">
  <path id="home-lg-solid_lg" d="M27.859,11.562,24.992,9.028V2.368a.784.784,0,0,0-.781-.781H21.086a.784.784,0,0,0-.781.781V4.892L15.363.527a1.951,1.951,0,0,0-2.612,0L.25,11.562a.781.781,0,0,0-.059,1.1h0l1.045,1.162a.781.781,0,0,0,1.1.059h0l11.2-9.878a.787.787,0,0,1,1.035,0l11.2,9.878a.781.781,0,0,0,1.1-.059h0l1.045-1.162A.781.781,0,0,0,27.859,11.562Zm-13.8-5.923L3.385,15.049a2.475,2.475,0,0,1-.269.166v9.029a.784.784,0,0,0,.781.781h6.25a.784.784,0,0,0,.781-.781v-6.25a.784.784,0,0,1,.781-.781H16.4a.784.784,0,0,1,.781.781v6.25a.784.784,0,0,0,.781.781h6.25a.784.784,0,0,0,.781-.781V15.215a2.8,2.8,0,0,1-.259-.156Z" transform="translate(0.009 -0.025)" fill="#b7b7b7"/>
</svg>
