<svg xmlns="http://www.w3.org/2000/svg" width="25" height="25" viewBox="0 0 25 25">
  <path id="パス_161" data-name="パス 161" d="M24,3.6,21.375.966a3.294,3.294,0,0,0-4.661,0l-15.5,15.4-1.2,7.275a1.172,1.172,0,0,0,1.347,1.347l7.275-1.2,15.4-15.5A3.3,3.3,0,0,0,24,3.6ZM9.787,15.213a1.074,1.074,0,0,0,1.519,0L17.119,9.4,18.514,10.8l-8.26,8.313V17.09H7.91V14.746H5.891L14.2,6.487,15.6,7.882,9.787,13.694a1.074,1.074,0,0,0,0,1.519ZM4.01,22.37,2.63,20.99,3.223,17.4l.9-.893H6.152v2.344H8.5v2.031l-.893.9Zm18.505-15.6,0,0,0,0L20.165,9.133l-4.3-4.3L18.228,2.49l0,0,0,0a1.145,1.145,0,0,1,1.623,0l2.63,2.63a1.149,1.149,0,0,1,.031,1.653Z" transform="translate(0 0)" fill="#b7b7b7"/>
</svg>
