<svg xmlns="http://www.w3.org/2000/svg" width="25" height="21.875" viewBox="0 0 25 21.875">
  <path id="bars-solid" d="M.893,64.018H24.107A.893.893,0,0,0,25,63.125V60.893A.893.893,0,0,0,24.107,60H.893A.893.893,0,0,0,0,60.893v2.232A.893.893,0,0,0,.893,64.018Zm0,8.929H24.107A.893.893,0,0,0,25,72.054V69.821a.893.893,0,0,0-.893-.893H.893A.893.893,0,0,0,0,69.821v2.232A.893.893,0,0,0,.893,72.946Zm0,8.929H24.107A.893.893,0,0,0,25,80.982V78.75a.893.893,0,0,0-.893-.893H.893A.893.893,0,0,0,0,78.75v2.232A.893.893,0,0,0,.893,81.875Z" transform="translate(0 -60)" fill="#b7b7b7"/>
</svg>
